<?xml version="1.0" standalone="no"?>
<!DOCTYPE svg PUBLIC "-//W3C//DTD SVG 20010904//EN"
 "http://www.w3.org/TR/2001/REC-SVG-20010904/DTD/svg10.dtd">
<svg version="1.0" xmlns="http://www.w3.org/2000/svg"
 width="2048.000000pt" height="2048.000000pt" viewBox="0 0 2048.000000 2048.000000"
 preserveAspectRatio="xMidYMid meet">
<metadata>
Created by potrace 1.14, written by Peter Selinger 2001-2017
</metadata>
<g transform="translate(0.000000,2048.000000) scale(0.100000,-0.100000)"
fill="#000000" stroke="none">
<path d="M11550 19450 c-298 -6 -307 -7 -375 -32 -58 -22 -94 -28 -205 -33
-104 -5 -158 -13 -235 -35 -55 -16 -122 -32 -150 -35 -27 -4 -66 -13 -85 -22
-19 -8 -71 -18 -115 -24 -102 -12 -175 -28 -200 -44 -11 -7 -50 -16 -85 -19
-92 -10 -242 -52 -331 -92 -42 -19 -81 -34 -87 -34 -6 0 -38 -13 -70 -30 -33
-16 -68 -30 -79 -30 -10 0 -41 -11 -69 -24 -27 -14 -87 -39 -134 -57 -47 -18
-114 -52 -150 -75 -36 -22 -77 -44 -93 -48 -15 -3 -51 -17 -80 -30 -28 -13
-79 -29 -112 -35 -33 -6 -71 -19 -85 -29 -14 -10 -92 -51 -175 -92 -82 -41
-168 -86 -190 -101 -22 -14 -67 -36 -100 -48 -33 -12 -100 -46 -150 -75 -123
-73 -130 -76 -164 -76 -46 0 -131 -25 -181 -54 -25 -14 -82 -66 -127 -115 -59
-64 -94 -93 -120 -101 -49 -16 -119 -56 -161 -92 -18 -15 -39 -28 -47 -28 -8
0 -29 -13 -47 -29 -18 -15 -43 -32 -56 -35 -13 -4 -50 -30 -83 -57 -32 -28
-92 -66 -132 -85 -39 -20 -79 -40 -87 -45 -8 -5 -39 -21 -69 -35 -30 -14 -85
-54 -123 -88 -37 -35 -83 -71 -100 -80 -56 -29 -124 -70 -159 -97 -19 -15 -59
-39 -89 -55 -56 -29 -94 -56 -149 -104 -16 -14 -52 -41 -81 -60 -28 -19 -79
-58 -113 -85 -34 -28 -99 -78 -145 -113 -134 -100 -171 -131 -284 -242 -105
-103 -209 -189 -318 -262 -52 -35 -99 -81 -257 -258 -110 -123 -130 -143 -173
-180 -23 -19 -52 -49 -63 -66 -52 -74 -110 -145 -188 -224 -45 -47 -90 -98
-99 -113 -10 -15 -59 -71 -109 -123 -50 -52 -102 -112 -116 -132 -36 -54 -120
-163 -148 -192 -45 -46 -147 -173 -147 -182 0 -6 -20 -36 -44 -67 -52 -69
-110 -159 -131 -203 -9 -18 -29 -55 -45 -83 -39 -65 -70 -127 -70 -142 0 -7
-11 -33 -25 -59 -14 -26 -25 -54 -25 -62 0 -8 -11 -30 -26 -49 -15 -19 -31
-61 -39 -101 -13 -60 -39 -155 -67 -237 -35 -104 -39 -132 -34 -285 2 -85 4
-166 3 -180 -6 -119 -2 -145 36 -210 21 -36 57 -93 80 -127 23 -34 60 -91 82
-125 21 -35 60 -88 85 -118 25 -30 55 -70 66 -88 22 -35 109 -112 127 -112 5
0 26 -12 45 -27 20 -16 44 -33 53 -38 10 -6 57 -46 105 -90 103 -96 149 -128
217 -154 45 -17 184 -82 267 -125 24 -13 73 -31 170 -63 25 -8 74 -26 109 -39
36 -14 103 -30 150 -35 145 -17 204 -27 261 -43 33 -10 94 -16 155 -16 57 0
126 -7 160 -16 49 -12 156 -16 590 -20 323 -3 571 -1 635 6 58 5 167 14 243
20 86 6 159 18 192 29 35 13 97 22 177 26 116 6 263 29 388 60 30 8 91 23 135
34 44 11 103 23 130 27 28 4 77 15 110 25 33 9 125 27 204 39 79 12 179 32
221 46 43 13 101 29 131 34 30 6 83 25 119 42 77 38 169 72 265 98 109 29 195
59 250 85 28 13 64 27 80 31 17 4 57 20 90 36 33 15 67 28 75 28 9 0 31 11 50
23 19 13 50 29 69 35 19 7 42 19 50 26 9 8 41 21 71 30 96 28 272 110 576 269
78 41 150 77 160 80 10 4 51 24 89 46 39 22 84 47 101 55 18 9 62 36 99 61 37
26 78 50 92 56 25 9 68 41 163 119 30 25 68 54 84 64 38 24 84 65 167 149 37
37 74 67 82 67 22 0 95 69 123 116 18 31 28 65 31 109 5 58 4 65 -20 89 -20
20 -36 26 -67 26 -52 0 -72 -11 -139 -74 -90 -85 -107 -100 -137 -118 -16 -10
-49 -33 -74 -53 -25 -19 -58 -42 -75 -51 -16 -9 -60 -46 -96 -83 -36 -36 -83
-75 -105 -86 -21 -10 -64 -36 -94 -56 -30 -20 -77 -48 -105 -63 -27 -15 -79
-43 -114 -62 -35 -19 -85 -54 -111 -77 -26 -23 -76 -57 -111 -73 -146 -71
-175 -84 -184 -84 -11 0 -45 -16 -235 -108 -69 -34 -163 -73 -210 -87 -47 -14
-132 -50 -190 -79 -58 -29 -120 -56 -138 -60 -18 -3 -45 -14 -60 -25 -15 -10
-45 -22 -67 -26 -22 -4 -44 -11 -50 -15 -5 -5 -39 -19 -75 -33 -36 -13 -87
-36 -114 -51 -27 -14 -59 -26 -70 -26 -12 0 -37 -9 -57 -19 -19 -11 -71 -24
-115 -31 -43 -7 -110 -22 -149 -35 -136 -45 -241 -74 -320 -89 -120 -22 -210
-45 -268 -65 -59 -22 -145 -37 -262 -46 -44 -4 -120 -17 -170 -30 -49 -13
-133 -27 -185 -31 -58 -4 -112 -14 -140 -26 -64 -27 -274 -46 -665 -59 -385
-13 -1130 -6 -1190 10 -22 6 -95 18 -162 26 -67 8 -132 19 -144 26 -12 6 -66
17 -119 24 -68 9 -108 20 -136 37 -21 13 -59 30 -84 38 -25 7 -52 20 -61 27
-9 8 -79 35 -155 61 -106 37 -158 61 -219 102 -103 70 -102 69 -139 106 -35
34 -122 94 -137 94 -5 0 -61 51 -123 113 -63 61 -147 144 -187 183 -82 79
-102 120 -119 249 -9 72 3 379 18 465 15 80 44 148 69 159 26 12 62 82 63 121
0 14 7 38 15 54 18 34 19 85 4 136 -7 21 -9 49 -6 62 11 41 84 142 125 173 23
17 46 44 53 60 22 57 62 135 70 135 4 0 31 30 60 68 66 83 72 90 150 179 35
39 91 108 124 153 33 45 72 96 86 113 15 18 45 59 68 92 47 68 173 216 241
285 25 25 53 56 62 70 30 47 203 229 243 255 22 14 72 58 110 98 90 92 289
283 337 323 20 16 42 41 48 55 6 13 38 39 73 58 36 20 99 71 149 120 137 135
206 194 313 265 55 36 136 95 180 131 44 35 94 71 110 78 17 8 55 37 85 66 51
47 173 128 262 172 20 10 65 41 100 70 34 28 93 66 130 86 37 19 84 53 104 75
22 25 53 46 82 55 46 16 132 70 132 83 0 10 88 65 133 84 21 9 65 38 98 65 32
27 78 58 102 68 101 43 216 109 267 153 56 48 120 84 208 119 26 10 70 33 97
49 83 51 327 169 372 181 24 7 72 27 108 46 36 19 73 39 83 44 62 33 153 70
187 76 52 10 69 19 122 68 44 40 46 41 139 47 76 5 100 11 125 29 20 15 55 26
101 33 48 6 103 25 176 59 76 35 129 53 191 63 91 15 336 76 386 97 17 6 75
12 130 13 71 1 109 7 130 18 44 24 250 68 315 68 30 0 96 7 145 15 50 8 112
15 138 15 27 0 103 9 169 21 114 19 150 20 602 17 458 -4 484 -5 543 -25 77
-27 206 -51 342 -64 58 -5 130 -16 160 -25 68 -19 109 -28 231 -50 52 -9 118
-25 145 -36 28 -10 77 -22 110 -27 41 -7 85 -24 140 -55 44 -25 114 -62 155
-82 41 -21 87 -47 102 -59 14 -12 43 -25 65 -29 45 -7 114 -59 179 -136 25
-30 92 -102 148 -160 83 -87 109 -121 145 -195 24 -50 50 -97 57 -105 7 -8 17
-35 24 -60 6 -25 20 -58 30 -75 10 -16 23 -55 30 -85 7 -30 20 -68 29 -85 13
-25 16 -73 16 -310 0 -247 -2 -284 -17 -312 -10 -17 -23 -75 -29 -130 -6 -54
-19 -118 -30 -143 -10 -25 -25 -79 -33 -120 -8 -41 -24 -93 -35 -115 -12 -21
-21 -47 -21 -56 0 -9 -13 -43 -29 -75 -16 -32 -43 -90 -61 -129 -17 -38 -38
-83 -47 -100 -9 -16 -35 -67 -59 -112 -23 -45 -49 -92 -58 -105 -8 -13 -33
-66 -57 -118 -65 -145 -91 -186 -227 -350 -16 -19 -34 -50 -40 -68 -14 -41
-39 -74 -129 -170 -39 -42 -91 -105 -116 -138 -25 -34 -50 -65 -56 -69 -6 -3
-21 -25 -33 -48 -11 -23 -51 -73 -89 -112 -76 -78 -111 -124 -135 -174 -21
-46 -127 -173 -249 -298 -55 -56 -113 -117 -130 -135 -16 -18 -79 -77 -140
-130 -60 -53 -119 -111 -130 -128 -11 -17 -36 -41 -55 -55 -19 -13 -91 -81
-160 -151 -69 -70 -137 -134 -151 -143 -14 -9 -40 -32 -57 -52 -20 -23 -54
-46 -90 -59 -31 -13 -73 -31 -92 -41 -133 -66 -215 -101 -284 -120 -126 -34
-302 -108 -349 -147 -8 -7 -33 -19 -57 -27 -43 -15 -162 -69 -190 -86 -8 -5
-31 -17 -50 -26 -19 -10 -42 -22 -50 -29 -8 -6 -64 -37 -125 -69 -60 -31 -157
-89 -215 -128 -105 -72 -139 -91 -348 -199 -61 -32 -113 -62 -116 -67 -4 -5
-23 -15 -44 -22 -20 -6 -50 -23 -67 -36 -103 -84 -163 -126 -239 -167 -86 -47
-193 -117 -273 -179 -23 -17 -81 -54 -129 -82 -48 -27 -116 -73 -150 -102 -34
-28 -80 -61 -103 -72 -22 -12 -41 -25 -41 -30 0 -5 -13 -12 -30 -16 -16 -4
-50 -26 -76 -50 -25 -24 -66 -53 -90 -64 -24 -12 -72 -47 -105 -79 -33 -31
-77 -68 -97 -82 -20 -14 -74 -52 -119 -85 -45 -33 -123 -89 -173 -125 -145
-104 -150 -107 -204 -153 -61 -51 -120 -96 -151 -117 -112 -73 -203 -137 -220
-154 -42 -42 -131 -116 -185 -152 -30 -21 -71 -53 -92 -73 -20 -20 -62 -58
-93 -86 -31 -27 -82 -73 -113 -101 -31 -28 -67 -57 -78 -65 -12 -8 -49 -40
-83 -72 -34 -31 -65 -57 -69 -57 -8 0 -35 -25 -204 -183 -48 -45 -130 -120
-183 -167 -90 -79 -301 -300 -352 -368 -14 -18 -63 -50 -124 -81 -121 -61
-156 -89 -189 -150 -21 -39 -37 -53 -101 -86 -42 -22 -94 -55 -115 -73 -78
-66 -90 -76 -145 -114 -132 -90 -175 -157 -150 -237 22 -76 109 -106 198 -69
21 9 53 22 71 29 19 7 62 30 95 52 34 23 152 86 262 142 110 55 211 108 225
117 14 9 41 21 60 27 19 6 62 32 94 58 32 27 69 55 81 63 105 71 147 96 190
113 28 10 57 25 66 33 8 8 22 14 31 14 8 0 46 24 84 54 38 29 89 64 114 76 25
13 63 35 84 49 56 37 124 76 175 102 24 11 69 40 100 64 31 23 67 46 81 50 14
4 44 18 66 31 23 13 63 31 89 39 26 9 78 40 115 68 38 29 95 71 128 95 32 23
67 51 77 63 11 11 49 36 85 54 36 19 100 63 142 97 67 55 151 114 261 183 18
10 38 25 45 32 7 7 32 17 55 23 23 6 50 13 59 16 9 3 48 40 86 82 43 47 104
100 158 136 49 33 100 68 114 78 14 10 59 35 100 55 41 19 89 50 106 67 30 30
105 90 182 148 21 15 58 39 83 52 26 14 60 43 76 65 43 58 136 128 243 183 31
16 96 67 149 118 52 49 100 90 108 90 39 0 184 83 253 145 81 73 183 145 205
145 22 0 135 88 230 180 50 48 111 99 137 114 42 23 118 89 225 194 19 17 37
32 41 32 4 0 27 19 52 41 83 76 144 125 232 183 48 32 102 71 120 88 18 17 67
60 108 96 41 36 91 84 110 107 19 23 71 73 115 112 44 39 89 80 99 92 11 11
26 21 35 21 9 0 49 16 88 37 40 20 76 34 80 30 9 -9 -18 -65 -57 -118 -16 -23
-30 -47 -30 -53 0 -6 -11 -31 -24 -56 -13 -25 -29 -64 -35 -87 -6 -23 -36 -74
-66 -114 -30 -40 -55 -76 -55 -80 0 -5 -12 -21 -26 -36 -14 -15 -34 -37 -44
-48 -10 -11 -28 -40 -40 -65 -12 -25 -41 -60 -64 -78 -79 -65 -147 -135 -166
-172 -10 -20 -35 -50 -55 -66 -50 -40 -257 -251 -272 -278 -6 -11 -33 -37 -59
-56 -26 -19 -86 -73 -134 -120 -48 -47 -108 -105 -133 -129 -26 -24 -47 -47
-47 -51 0 -4 -44 -47 -97 -95 -86 -78 -192 -186 -621 -630 -53 -55 -135 -131
-182 -169 -47 -38 -149 -133 -227 -212 -78 -79 -166 -159 -194 -178 -29 -19
-94 -73 -145 -121 -51 -47 -114 -101 -141 -122 -75 -56 -194 -182 -232 -243
-28 -45 -34 -65 -35 -112 -1 -53 2 -60 34 -92 35 -34 54 -41 117 -38 51 3 198
133 303 267 63 81 125 139 163 151 51 16 132 81 195 156 67 81 106 117 227
215 32 26 90 77 128 113 37 36 81 72 96 80 35 19 156 111 226 171 29 26 92 68
139 95 80 44 194 131 276 210 20 19 41 34 46 34 11 0 72 37 151 91 23 16 44
29 46 29 3 0 32 18 64 40 126 87 165 112 203 125 21 7 64 34 95 59 36 30 65
46 83 46 23 0 117 40 202 86 14 7 41 21 60 31 19 9 42 22 50 29 8 6 33 17 55
24 22 7 59 24 82 37 22 13 69 28 102 34 56 9 159 46 271 97 108 49 330 99 330
74 0 -6 -10 -14 -22 -17 -32 -10 -84 -62 -113 -112 -14 -23 -40 -54 -58 -70
-18 -15 -53 -62 -77 -103 -58 -101 -202 -263 -462 -519 -36 -36 -82 -86 -101
-111 -19 -25 -101 -112 -182 -195 -81 -82 -153 -162 -161 -177 -8 -16 -18 -28
-23 -28 -4 0 -31 -28 -59 -62 -28 -35 -92 -106 -142 -158 -123 -129 -132 -139
-241 -267 -124 -147 -136 -164 -159 -216 -11 -25 -54 -81 -97 -126 -83 -89
-123 -139 -123 -155 -1 -6 -20 -37 -43 -68 -23 -31 -73 -101 -112 -155 -38
-53 -95 -122 -125 -153 -76 -78 -110 -123 -154 -210 -21 -41 -60 -97 -86 -125
-26 -27 -61 -79 -78 -115 -32 -68 -117 -158 -232 -245 -79 -60 -111 -122 -74
-143 15 -8 15 -12 1 -38 -8 -16 -42 -52 -74 -79 -33 -28 -79 -74 -103 -104
-24 -29 -77 -81 -118 -115 -41 -33 -109 -94 -152 -134 -42 -40 -106 -91 -141
-115 -35 -23 -90 -70 -124 -105 -33 -34 -79 -73 -102 -86 -40 -23 -69 -45
-246 -189 -40 -32 -85 -68 -100 -80 -28 -21 -87 -73 -193 -167 -28 -25 -81
-70 -118 -99 -71 -59 -127 -121 -168 -187 -32 -51 -41 -59 -113 -109 -32 -22
-68 -49 -80 -60 -12 -11 -43 -36 -70 -55 -60 -43 -512 -495 -520 -521 -3 -10
-20 -27 -38 -38 -18 -11 -43 -34 -57 -50 -14 -17 -108 -113 -209 -213 -248
-246 -244 -242 -307 -331 -30 -42 -58 -77 -63 -77 -17 0 -103 -84 -121 -119
-10 -20 -75 -94 -145 -166 -110 -113 -233 -262 -327 -394 -15 -21 -42 -52 -60
-68 -18 -16 -53 -56 -78 -88 -25 -33 -49 -63 -55 -67 -5 -3 -28 -32 -50 -63
-22 -31 -68 -93 -102 -138 -35 -45 -63 -85 -63 -88 0 -13 -113 -171 -147 -207
-7 -7 -33 -53 -57 -103 -48 -95 -82 -149 -103 -162 -8 -5 -33 -48 -55 -95 -23
-48 -47 -91 -54 -97 -21 -18 -92 -150 -99 -185 -4 -19 -13 -44 -21 -55 -7 -11
-18 -42 -25 -70 -7 -27 -25 -71 -41 -96 -15 -25 -28 -49 -28 -53 0 -4 -11 -31
-24 -59 -13 -29 -27 -81 -31 -117 -4 -36 -16 -81 -26 -101 -10 -20 -21 -70
-24 -115 -4 -43 -15 -106 -25 -139 -13 -43 -20 -108 -25 -225 -4 -99 -14 -206
-26 -267 -19 -95 -19 -107 -5 -165 8 -35 19 -110 25 -168 7 -80 17 -123 42
-180 17 -41 37 -82 44 -90 7 -8 16 -26 20 -40 4 -14 15 -36 25 -50 10 -14 20
-34 24 -45 3 -11 29 -56 56 -100 28 -44 59 -99 70 -122 10 -24 23 -43 28 -43
5 0 17 -20 26 -45 10 -25 26 -51 35 -58 10 -6 22 -20 27 -30 6 -10 44 -54 85
-99 147 -163 203 -212 295 -262 49 -27 112 -66 139 -87 33 -24 67 -41 95 -45
25 -4 68 -16 95 -27 41 -17 92 -23 285 -33 222 -12 241 -11 350 7 182 32 311
60 360 79 25 10 65 21 90 25 25 4 56 13 70 20 14 8 55 19 90 25 36 6 94 24
130 40 36 15 103 40 150 55 47 15 108 36 135 47 28 11 69 26 91 33 23 7 70 33
105 57 88 60 158 101 199 118 19 7 48 24 63 37 16 13 40 23 54 23 14 0 60 19
102 43 102 58 106 60 186 98 39 19 102 52 140 74 39 23 93 49 120 59 71 26
252 122 300 159 22 17 58 49 80 71 47 46 93 76 117 76 9 0 29 11 44 25 15 14
32 25 39 25 6 0 45 23 86 50 41 28 101 68 134 90 33 21 73 49 89 62 38 29 125
82 201 121 33 17 71 38 85 47 14 10 52 34 85 56 81 52 149 118 175 171 12 24
42 60 68 81 25 20 66 55 91 78 25 23 56 47 69 53 12 7 35 33 51 58 20 31 46
56 84 77 210 119 280 166 296 201 23 50 82 125 98 125 8 0 33 19 54 42 33 36
43 42 74 40 24 -2 47 5 71 22 48 33 111 109 119 145 4 17 23 41 50 61 41 31
95 98 95 118 0 27 44 61 91 71 56 12 83 25 113 52 11 11 23 19 26 19 13 0 70
92 70 114 0 29 -27 54 -67 62 -65 13 -159 -69 -217 -189 -18 -37 -46 -72 -79
-99 -27 -24 -63 -60 -78 -81 -16 -22 -50 -53 -76 -69 -74 -47 -142 -108 -169
-149 -15 -24 -40 -45 -66 -57 -24 -10 -69 -42 -101 -70 -42 -36 -70 -52 -100
-57 -23 -4 -54 -13 -68 -21 -26 -13 -187 -193 -209 -233 -6 -13 -28 -29 -48
-38 -67 -27 -156 -75 -230 -124 -40 -27 -90 -53 -111 -58 -38 -8 -115 -55
-140 -85 -8 -9 -20 -16 -29 -16 -8 0 -42 -29 -75 -65 -33 -36 -66 -65 -72 -65
-22 0 -129 -62 -178 -102 -62 -53 -107 -83 -170 -115 -29 -14 -68 -38 -88 -54
-19 -15 -78 -50 -130 -77 -52 -27 -123 -68 -159 -93 -108 -73 -170 -108 -209
-119 -20 -5 -65 -29 -100 -52 -35 -24 -92 -58 -125 -76 -34 -18 -83 -48 -111
-65 -45 -29 -100 -56 -205 -102 -19 -8 -42 -19 -50 -25 -8 -5 -31 -16 -50 -25
-19 -8 -46 -21 -60 -29 -14 -7 -45 -20 -70 -29 -73 -24 -159 -63 -178 -79 -9
-9 -35 -21 -56 -28 -22 -7 -53 -21 -70 -31 -17 -10 -61 -23 -98 -29 -40 -7
-80 -21 -99 -36 -18 -13 -38 -24 -45 -24 -6 0 -42 -14 -80 -31 -38 -18 -100
-40 -139 -50 -67 -17 -146 -40 -245 -72 -63 -20 -218 -54 -330 -71 -250 -39
-465 -44 -570 -12 -66 20 -202 77 -221 93 -8 7 -20 13 -25 13 -12 0 -94 70
-149 126 -22 23 -58 51 -80 62 -40 20 -79 55 -99 91 -6 10 -23 42 -38 70 -36
68 -87 141 -98 141 -5 0 -14 17 -21 38 -6 20 -20 48 -29 62 -9 14 -23 43 -30
65 -7 22 -23 58 -36 80 -13 24 -26 67 -30 105 -4 36 -16 83 -27 105 -44 87
-44 664 -1 790 8 22 21 86 29 143 8 56 22 116 30 132 9 17 25 61 36 97 12 37
27 76 34 87 8 12 17 39 21 61 4 22 17 58 29 80 13 22 28 70 33 107 8 47 21 84
46 125 20 32 44 71 54 86 58 97 132 206 142 212 17 11 55 75 76 130 10 28 39
78 64 113 25 35 54 78 65 95 10 18 25 37 31 42 7 6 33 38 58 72 25 34 65 80
89 102 24 22 58 69 76 103 43 82 158 235 241 320 137 140 200 209 200 220 0
18 67 105 111 146 23 20 52 46 64 57 36 33 110 127 148 186 20 31 52 69 71 85
82 66 116 97 116 105 0 36 132 166 225 220 19 12 65 58 102 102 37 45 76 89
87 97 26 18 184 178 336 339 63 67 135 141 159 164 24 23 95 92 157 152 62 61
130 121 150 135 54 38 264 232 277 257 7 12 39 44 73 70 186 147 258 209 272
232 8 15 33 40 54 55 22 16 49 43 61 62 21 31 64 60 74 50 11 -11 -9 -76 -26
-86 -24 -12 -76 -104 -90 -157 -6 -22 -18 -46 -27 -54 -8 -7 -22 -26 -31 -43
-9 -17 -37 -58 -62 -91 -47 -61 -80 -114 -106 -175 -9 -19 -20 -43 -26 -54 -6
-10 -33 -62 -61 -115 -27 -53 -55 -103 -62 -111 -7 -8 -39 -73 -71 -145 -32
-71 -75 -169 -96 -216 -22 -47 -39 -92 -39 -100 0 -8 -7 -27 -16 -44 -9 -16
-25 -66 -34 -110 -10 -44 -25 -107 -33 -140 -36 -136 -48 -469 -26 -680 11
-102 16 -119 71 -235 32 -69 64 -134 70 -145 7 -11 20 -37 30 -57 57 -118 210
-311 346 -439 70 -66 162 -131 203 -144 13 -4 35 -16 49 -26 14 -9 60 -25 103
-33 43 -9 86 -20 95 -25 9 -5 60 -16 111 -25 52 -9 101 -22 109 -29 11 -8 72
-12 211 -12 179 0 207 3 315 28 65 15 130 34 145 42 15 7 56 21 91 30 36 9 74
22 85 29 11 7 38 19 60 26 22 7 69 30 105 50 109 62 226 117 290 135 14 4 38
17 55 29 16 11 46 29 67 38 20 9 67 36 105 61 37 24 101 65 141 91 65 41 88
60 163 128 10 10 36 29 59 43 22 14 40 29 40 33 0 5 15 16 33 25 17 10 64 40
102 67 39 27 74 50 78 50 4 0 40 26 78 58 39 31 87 70 107 85 20 16 71 61 113
100 116 109 138 127 215 177 39 25 95 69 124 98 29 29 56 52 60 52 5 0 42 38
83 84 41 46 123 128 182 182 60 54 121 116 136 137 15 21 65 79 111 129 46 50
94 103 108 119 14 15 41 50 60 79 19 28 64 82 100 119 36 38 76 87 90 110 14
23 44 68 67 100 22 32 50 76 61 97 11 22 39 55 61 74 22 19 46 47 52 62 6 16
16 28 21 28 5 0 17 17 26 38 31 67 75 136 123 192 25 30 65 92 88 138 24 45
60 108 82 140 84 122 170 253 176 270 4 9 16 33 28 52 12 19 46 80 75 135 73
138 72 137 98 168 12 16 22 33 22 38 0 5 11 27 25 49 14 21 29 60 35 85 6 26
18 58 27 72 23 35 57 117 98 237 19 54 39 103 44 110 21 26 63 165 68 226 3
36 12 90 21 120 20 72 18 317 -4 433 -9 45 -20 111 -26 147 -12 86 -31 115
-108 174 -36 26 -94 75 -129 108 -35 33 -80 67 -100 74 -20 8 -58 25 -86 39
-103 50 -179 66 -323 72 -104 3 -151 9 -195 25 -54 19 -71 20 -240 14 -181 -8
-314 -29 -375 -60 -15 -7 -68 -15 -118 -18 -72 -3 -98 -9 -128 -27 -26 -17
-62 -26 -118 -32 -45 -4 -108 -19 -142 -32 -33 -14 -123 -50 -199 -81 -76 -31
-159 -59 -185 -62 -55 -7 -203 -57 -247 -84 -16 -10 -65 -32 -107 -49 -42 -17
-123 -55 -180 -84 -57 -30 -115 -57 -128 -61 -14 -4 -52 -21 -85 -37 -33 -15
-76 -35 -95 -44 -19 -8 -56 -28 -83 -43 -26 -15 -71 -40 -100 -56 -28 -15 -59
-34 -68 -42 -8 -8 -19 -14 -22 -14 -4 0 -24 -11 -45 -24 -20 -12 -48 -27 -62
-31 -29 -9 -182 -107 -220 -140 -14 -12 -52 -37 -85 -55 -33 -18 -81 -48 -106
-65 -25 -18 -55 -36 -66 -39 -12 -4 -24 -13 -27 -21 -3 -8 -16 -14 -28 -14
-17 1 -18 2 -6 6 10 2 21 17 24 31 3 15 8 34 10 42 2 8 29 41 59 72 30 32 55
62 55 68 0 6 25 42 55 80 30 38 55 72 55 76 0 4 17 26 38 49 126 141 160 182
182 219 36 61 77 114 131 171 26 28 64 77 85 110 20 33 73 94 116 136 54 52
80 85 84 107 4 17 14 34 24 37 9 3 22 15 27 28 6 12 43 57 83 100 40 42 89
101 109 131 54 80 155 211 216 281 30 34 55 67 55 73 0 6 9 14 20 17 11 3 20
10 20 15 0 10 46 69 123 158 32 37 81 99 108 139 29 40 83 99 126 134 99 84
113 102 113 155 0 40 3 44 47 71 56 34 139 110 194 178 22 27 80 93 129 145
49 53 106 118 127 143 25 32 51 51 76 59 40 12 133 104 194 192 27 39 33 58
33 100 0 97 -21 134 -106 187 -34 21 -50 24 -129 23 -61 -1 -110 -9 -152 -22
-34 -12 -91 -24 -125 -28 -35 -3 -107 -21 -160 -40 -98 -33 -109 -37 -232 -93
-38 -17 -86 -34 -108 -37 -22 -4 -55 -17 -73 -30 -19 -13 -50 -26 -69 -29 -19
-4 -49 -18 -67 -31 -18 -13 -40 -24 -49 -24 -9 0 -64 -24 -122 -53 -59 -30
-129 -62 -155 -72 -26 -10 -61 -28 -78 -40 -16 -12 -37 -25 -45 -29 -8 -3 -42
-26 -75 -51 -67 -49 -258 -155 -281 -155 -12 0 -12 4 -4 20 9 18 272 290 436
454 75 75 148 164 173 215 11 20 46 58 78 84 106 85 124 102 142 129 9 14 73
86 143 160 139 147 188 204 233 268 17 24 55 71 86 104 31 34 76 97 99 141 23
44 46 85 50 90 4 6 22 56 40 113 25 81 31 113 25 147 -3 25 -10 47 -16 50 -15
10 -49 82 -49 104 0 11 21 39 47 63 26 24 79 76 118 117 77 82 264 277 398
416 48 49 87 93 87 97 0 4 24 32 53 62 28 30 70 77 92 105 22 28 65 77 95 109
106 112 143 154 186 209 24 31 61 75 82 97 41 43 122 166 122 183 0 15 67 112
105 153 41 43 181 251 200 297 8 18 18 33 23 33 5 0 38 42 72 93 34 50 70 101
80 112 33 38 88 140 95 175 4 19 20 62 36 94 16 33 29 65 29 71 0 7 9 20 19
29 11 10 25 41 31 69 7 29 18 62 26 74 7 11 18 43 25 70 6 26 22 67 34 90 13
23 29 59 35 80 14 43 72 201 93 253 8 19 17 89 21 155 3 66 15 165 26 220 22
108 24 229 10 440 -8 112 -41 286 -59 310 -5 5 -16 33 -25 60 -10 28 -35 84
-56 125 -21 41 -52 102 -69 135 -16 33 -43 77 -58 97 -15 21 -48 65 -73 99
-65 89 -182 210 -231 239 -23 14 -61 42 -83 62 -23 20 -71 54 -107 75 -35 21
-75 46 -89 56 -53 38 -115 77 -124 77 -10 0 -137 58 -206 94 -25 13 -60 26
-79 30 -19 3 -42 12 -50 19 -9 8 -56 28 -106 46 -69 25 -116 35 -200 41 -114
9 -139 14 -215 48 -28 12 -90 24 -165 31 -65 7 -146 18 -180 26 -66 16 -629
46 -785 43 -52 -1 -232 -5 -400 -8z m24 -6259 c7 -11 -101 -113 -156 -148 -22
-13 -66 -50 -99 -81 -74 -72 -105 -100 -149 -133 -19 -14 -57 -47 -84 -73 -65
-62 -155 -130 -208 -157 -24 -12 -69 -39 -100 -60 -31 -22 -62 -39 -68 -39 -5
0 -44 -31 -85 -70 -42 -38 -118 -95 -170 -126 -52 -31 -95 -60 -95 -63 0 -4
-30 -27 -67 -51 -38 -24 -81 -56 -98 -72 -51 -49 -167 -138 -180 -138 -6 0
-74 -47 -151 -106 -139 -105 -160 -119 -371 -254 -62 -40 -113 -76 -113 -81 0
-5 -6 -9 -12 -9 -7 0 -38 -23 -68 -52 -30 -28 -75 -62 -100 -75 -71 -38 -110
-63 -175 -112 -33 -25 -85 -62 -115 -82 -30 -20 -84 -59 -119 -88 -35 -28 -69
-51 -76 -51 -6 0 -31 -13 -53 -30 -23 -16 -45 -30 -50 -30 -12 0 -112 -77
-162 -125 -25 -23 -57 -49 -72 -56 -64 -33 -227 -136 -268 -170 -25 -20 -76
-53 -114 -74 -37 -21 -88 -55 -111 -75 -24 -21 -91 -63 -150 -95 -58 -31 -109
-63 -111 -70 -3 -7 -19 -19 -35 -25 -16 -7 -29 -16 -29 -21 0 -5 -14 -16 -32
-25 -17 -9 -42 -27 -56 -39 -14 -13 -39 -26 -56 -29 -17 -4 -51 -20 -75 -36
-24 -17 -49 -30 -54 -30 -6 0 -18 -7 -27 -15 -21 -19 -156 -85 -174 -85 -25 0
110 144 174 185 20 12 65 51 100 86 36 35 112 107 169 159 57 52 114 104 126
116 12 11 36 26 52 33 17 7 56 37 87 67 32 30 59 54 62 54 12 0 104 70 149
114 28 26 66 57 85 67 54 30 113 80 253 212 121 115 199 171 318 229 26 13 86
60 135 106 161 149 178 162 269 212 88 47 142 85 334 233 51 40 100 75 107 80
8 4 20 10 28 15 20 11 116 77 161 111 22 17 56 38 75 47 19 9 69 37 110 63 41
27 97 60 124 76 26 15 72 48 101 75 40 36 69 52 125 69 54 17 84 33 119 65 25
24 69 55 96 70 51 27 164 104 200 136 11 10 35 26 53 36 87 49 151 83 244 132
56 29 126 70 157 90 68 44 128 73 201 97 68 22 168 71 195 95 17 15 36 24 67
29 4 0 9 -3 12 -8z m2262 -3276 c20 -8 66 -20 102 -26 68 -11 185 -48 234 -75
14 -8 34 -14 45 -14 62 -1 161 -78 252 -198 89 -116 91 -123 91 -242 0 -58 7
-140 15 -183 20 -105 19 -166 -6 -262 -11 -44 -24 -98 -30 -120 -13 -54 -114
-251 -151 -295 -39 -46 -130 -220 -178 -340 -59 -147 -107 -229 -195 -336 -27
-33 -61 -80 -75 -103 -14 -23 -51 -82 -82 -132 -32 -49 -58 -93 -58 -98 0 -5
-10 -22 -23 -38 -12 -15 -40 -57 -61 -93 -22 -36 -68 -108 -103 -161 -34 -53
-63 -99 -63 -103 0 -11 -51 -76 -100 -127 -71 -73 -201 -234 -252 -312 -26
-40 -53 -78 -60 -86 -7 -8 -18 -24 -24 -35 -33 -58 -562 -592 -636 -640 -32
-21 -91 -73 -132 -117 -68 -72 -212 -191 -268 -220 -13 -7 -53 -40 -90 -75
-38 -35 -87 -73 -110 -85 -44 -23 -199 -138 -323 -241 -38 -32 -85 -70 -104
-85 -43 -37 -49 -42 -92 -90 -25 -27 -54 -46 -89 -58 -46 -15 -158 -73 -185
-95 -5 -5 -59 -27 -120 -50 -140 -53 -271 -115 -392 -187 -94 -55 -98 -56
-192 -62 -63 -5 -105 -13 -121 -24 -14 -9 -71 -24 -127 -32 -83 -14 -129 -15
-266 -7 -155 9 -170 12 -230 41 -35 17 -69 31 -76 31 -25 0 -138 54 -169 81
-18 16 -37 29 -42 29 -11 0 -76 64 -113 113 -15 20 -51 63 -78 94 -28 32 -68
84 -89 115 -56 81 -157 295 -164 348 -4 25 -15 59 -26 75 -18 28 -20 48 -20
280 1 245 1 251 25 300 14 28 25 61 25 75 0 51 82 303 154 475 13 33 50 111
80 173 31 62 56 115 56 118 0 14 65 151 81 172 10 13 23 40 30 60 7 20 31 63
53 95 23 33 50 74 61 92 66 110 96 156 133 205 23 30 42 60 42 66 0 6 8 22 19
35 10 13 27 40 38 59 31 57 111 177 122 184 14 9 72 110 101 177 19 45 53 87
145 182 66 67 149 143 185 167 36 24 97 70 135 103 39 32 86 67 106 77 19 10
60 38 90 63 48 39 124 79 319 171 82 39 139 83 146 114 3 15 7 33 10 39 2 7
27 24 56 38 81 39 111 56 133 75 25 21 106 63 340 174 99 48 198 96 220 107
22 12 91 48 154 81 67 35 137 63 170 70 31 5 84 23 118 39 34 16 65 29 69 29
4 0 15 7 24 15 22 19 148 85 165 85 7 0 43 14 79 31 43 20 94 34 144 40 46 6
87 17 102 28 51 37 107 59 165 66 33 4 87 20 120 36 33 15 90 33 125 38 36 5
94 23 130 40 55 26 78 31 145 32 44 1 109 7 145 14 92 17 175 17 216 0z"/>
<path d="M11919 14497 c-50 -33 -67 -77 -75 -194 -10 -146 9 -183 93 -183 44
0 94 28 119 65 14 22 18 51 18 155 1 123 0 129 -23 154 -32 33 -85 35 -132 3z"/>
</g>
</svg>
